<?xml version="1.0" encoding="UTF-8" standalone="no"?><!DOCTYPE svg PUBLIC "-//W3C//DTD SVG 1.1//EN" "http://www.w3.org/Graphics/SVG/1.1/DTD/svg11.dtd"><svg width="100%" height="100%" viewBox="0 0 1596 1042" version="1.1" xmlns="http://www.w3.org/2000/svg" xmlns:xlink="http://www.w3.org/1999/xlink" xml:space="preserve" xmlns:serif="http://www.serif.com/" style="fill-rule:evenodd;clip-rule:evenodd;stroke-linejoin:round;stroke-miterlimit:2;"><g><g><g><path d="M171.166,430.534l45.139,0c13.65,0 24.522,2.93 32.638,8.767c8.095,5.795 12.153,15.191 12.153,28.212c0,14.584 -6.054,25 -18.142,31.25c20.703,3.646 31.076,15.886 31.076,36.719c0,12.218 -4.253,22.027 -12.76,29.427c-8.464,7.422 -20.096,11.111 -34.896,11.111l-55.208,0l-0,-145.486Zm33.159,56.944l2.605,0c7.4,0 12.934,-1.258 16.579,-3.819c3.646,-2.604 5.469,-6.858 5.469,-12.76c0,-9.896 -7.357,-14.844 -22.048,-14.844l-2.605,-0l0,31.423Zm0,62.934l10.417,0c16.189,0 24.306,-5.403 24.306,-16.232c-0,-6.424 -2.04,-11.046 -6.077,-13.889c-4.058,-2.821 -10.134,-4.254 -18.229,-4.254l-10.417,0l0,34.375Z" style="fill:#326dbb;fill-rule:nonzero;"/></g></g><g><g><path d="M285.97,564.822c-8.463,-9.245 -12.673,-20.573 -12.673,-33.941c-0,-13.411 4.21,-24.761 12.673,-34.028c8.442,-9.309 19.206,-13.975 32.292,-13.975c11.979,-0 21.832,3.776 29.601,11.284l-0,-8.593l31.25,-0l-0,90.451l-30.903,0l0,-10.243l-0.347,0c-7.769,8.572 -17.622,12.847 -29.601,12.847c-13.086,0 -23.85,-4.6 -32.292,-13.802Zm26.563,-49.305c-4.058,3.993 -6.076,9.114 -6.076,15.364c-0,6.25 1.931,11.35 5.816,15.278c3.862,3.95 8.984,5.903 15.364,5.903c6.076,-0 11.068,-1.997 15.017,-5.99c3.928,-4.036 5.903,-9.114 5.903,-15.191c0,-6.25 -2.04,-11.371 -6.076,-15.364c-4.058,-3.993 -9.006,-5.99 -14.844,-5.99c-6.033,0 -11.068,1.997 -15.104,5.99Z" style="fill:#326dbb;fill-rule:nonzero;"/></g></g><g><g><path d="M420.874,485.569l0,42.968c0,8.985 1.346,15.343 4.08,19.098c2.713,3.776 7.292,5.642 13.715,5.642c6.467,0 11.068,-1.866 13.802,-5.642c2.713,-3.755 4.08,-10.113 4.08,-19.098l0,-42.968l31.163,-0l0,50.607c0,15.061 -3.906,25.912 -11.718,32.552c-7.813,6.598 -20.269,9.896 -37.327,9.896c-17.014,0 -29.427,-3.298 -37.239,-9.896c-7.813,-6.64 -11.719,-17.491 -11.719,-32.552l-0,-50.607l31.163,-0Z" style="fill:#326dbb;fill-rule:nonzero;"/></g></g><g><g><path d="M504.488,564.822c-8.463,-9.245 -12.673,-20.573 -12.673,-33.941c-0,-13.411 4.21,-24.761 12.673,-34.028c8.442,-9.309 19.206,-13.975 32.292,-13.975c11.979,-0 21.831,3.776 29.601,11.284l-0,-69.878l31.25,0l-0,151.736l-30.903,0l-0,-10.243l-0.347,0c-7.77,8.572 -17.622,12.847 -29.601,12.847c-13.086,0 -23.85,-4.6 -32.292,-13.802Zm26.563,-49.305c-4.058,3.993 -6.077,9.114 -6.077,15.364c0,6.25 1.932,11.35 5.816,15.278c3.863,3.95 8.985,5.903 15.365,5.903c6.076,-0 11.068,-1.997 15.017,-5.99c3.928,-4.036 5.903,-9.114 5.903,-15.191c0,-6.25 -2.04,-11.371 -6.076,-15.364c-4.059,-3.993 -9.006,-5.99 -14.844,-5.99c-6.033,0 -11.068,1.997 -15.104,5.99Z" style="fill:#326dbb;fill-rule:nonzero;"/></g></g><g><g><path d="M678.541,485.569l36.025,-0l-71.094,136.284l-36.024,0l31.25,-59.982l-42.882,-76.302l36.024,-0l25.174,46.354l21.527,-46.354Z" style="fill:#326dbb;fill-rule:nonzero;"/></g></g><g><g><path d="M742.914,459.614l0,-29.08l102.344,0l0,29.08l-34.549,-0l0,116.406l-33.159,0l-0,-116.406l-34.636,-0Z" style="fill:#326dbb;fill-rule:nonzero;"/></g></g><g><g><path d="M848.412,576.02l-0,-90.451l31.25,-0l-0,13.021l0.347,-0c0.217,-0.456 0.607,-1.042 1.128,-1.737c0.521,-0.737 1.65,-1.996 3.386,-3.732c1.779,-1.78 3.667,-3.386 5.642,-4.774c2.018,-1.389 4.622,-2.626 7.813,-3.733c3.168,-1.15 6.423,-1.736 9.722,-1.736c3.407,-0 6.727,0.499 9.982,1.475c3.299,0.934 5.73,1.867 7.292,2.778l2.431,1.389l-13.021,26.476c-3.885,-3.299 -9.288,-4.948 -16.233,-4.948c-3.776,-0 -7.009,0.846 -9.722,2.517c-2.734,1.628 -4.644,3.624 -5.729,5.99c-1.107,2.322 -1.888,4.318 -2.344,5.989c-0.477,1.628 -0.694,2.908 -0.694,3.82l-0,47.656l-31.25,0Z" style="fill:#326dbb;fill-rule:nonzero;"/></g></g><g><g><path d="M933.587,564.822c-8.464,-9.245 -12.674,-20.573 -12.674,-33.941c0,-13.411 4.21,-24.761 12.674,-34.028c8.442,-9.309 19.205,-13.975 32.291,-13.975c11.98,-0 21.832,3.776 29.601,11.284l0,-8.593l31.25,-0l0,90.451l-30.903,0l0,-10.243l-0.347,0c-7.769,8.572 -17.621,12.847 -29.601,12.847c-13.086,0 -23.849,-4.6 -32.291,-13.802Zm26.562,-49.305c-4.058,3.993 -6.076,9.114 -6.076,15.364c-0,6.25 1.931,11.35 5.816,15.278c3.863,3.95 8.984,5.903 15.364,5.903c6.077,-0 11.068,-1.997 15.018,-5.99c3.928,-4.036 5.902,-9.114 5.902,-15.191c0,-6.25 -2.039,-11.371 -6.076,-15.364c-4.058,-3.993 -9.006,-5.99 -14.844,-5.99c-6.033,0 -11.067,1.997 -15.104,5.99Z" style="fill:#326dbb;fill-rule:nonzero;"/></g></g><g><g><path d="M1042.02,435.048c3.646,-3.646 7.986,-5.469 13.021,-5.469c5.078,0 9.461,1.823 13.107,5.469c3.646,3.646 5.469,8.029 5.469,13.108c-0,5.034 -1.823,9.375 -5.469,13.02c-3.646,3.646 -8.029,5.469 -13.107,5.469c-5.035,0 -9.375,-1.823 -13.021,-5.469c-3.646,-3.645 -5.469,-7.986 -5.469,-13.02c0,-5.079 1.823,-9.462 5.469,-13.108Zm-2.952,50.521l0,90.451l31.25,0l0,-90.451l-31.25,-0Z" style="fill:#326dbb;fill-rule:nonzero;"/></g></g><g><g><path d="M1083.51,576.02l0,-90.451l31.25,-0l0,9.462l0.348,-0c8.094,-8.095 16.71,-12.153 25.868,-12.153c4.514,-0 8.962,0.607 13.368,1.823c4.383,1.172 8.615,2.994 12.673,5.468c4.037,2.431 7.335,5.947 9.896,10.504c2.539,4.514 3.82,9.766 3.82,15.712l-0,59.635l-31.25,0l-0,-51.128c-0,-4.731 -1.52,-8.855 -4.514,-12.327c-3.017,-3.515 -6.923,-5.295 -11.719,-5.295c-4.688,0 -8.941,1.823 -12.76,5.469c-3.82,3.646 -5.73,7.704 -5.73,12.153l0,51.128l-31.25,0Z" style="fill:#326dbb;fill-rule:nonzero;"/></g></g><g><g><path d="M1194.22,435.048c3.645,-3.646 7.986,-5.469 13.02,-5.469c5.078,0 9.462,1.823 13.108,5.469c3.646,3.646 5.469,8.029 5.469,13.108c-0,5.034 -1.823,9.375 -5.469,13.02c-3.646,3.646 -8.03,5.469 -13.108,5.469c-5.034,0 -9.375,-1.823 -13.02,-5.469c-3.646,-3.645 -5.469,-7.986 -5.469,-13.02c-0,-5.079 1.823,-9.462 5.469,-13.108Zm-2.952,50.521l0,90.451l31.25,0l0,-90.451l-31.25,-0Z" style="fill:#326dbb;fill-rule:nonzero;"/></g></g><g><g><path d="M1235.71,576.02l0,-90.451l31.25,-0l0,9.462l0.347,-0c8.095,-8.095 16.71,-12.153 25.868,-12.153c4.514,-0 8.963,0.607 13.368,1.823c4.384,1.172 8.616,2.994 12.674,5.468c4.036,2.431 7.335,5.947 9.896,10.504c2.539,4.514 3.819,9.766 3.819,15.712l0,59.635l-31.25,0l0,-51.128c0,-4.731 -1.519,-8.855 -4.514,-12.327c-3.016,-3.515 -6.922,-5.295 -11.718,-5.295c-4.688,0 -8.941,1.823 -12.761,5.469c-3.819,3.646 -5.729,7.704 -5.729,12.153l0,51.128l-31.25,0Z" style="fill:#326dbb;fill-rule:nonzero;"/></g></g><g><g><path d="M1339.39,598.242l25.608,-12.5c4.687,7.748 12.847,11.632 24.479,11.632c5.425,0 10.46,-1.736 15.104,-5.208c4.622,-3.472 6.944,-8.811 6.944,-15.972l0,-6.684c-5.512,6.076 -15.364,9.114 -29.6,9.114c-13.086,0 -23.85,-4.6 -32.292,-13.802c-8.463,-9.245 -12.674,-20.573 -12.674,-33.941c0,-13.411 4.211,-24.761 12.674,-34.028c8.442,-9.309 19.206,-13.975 32.292,-13.975c11.632,-0 21.31,3.602 29.08,10.764l0.52,-0l0,-8.073l31.25,-0l0,92.882c0,14.692 -4.904,26.041 -14.67,34.027c-9.722,8.03 -22.613,12.066 -38.628,12.066c-25.868,0 -42.578,-8.767 -50.087,-26.302Zm36.806,-82.725c-4.059,3.993 -6.077,9.114 -6.077,15.364c0,6.25 1.932,11.35 5.816,15.278c3.863,3.95 8.985,5.903 15.365,5.903c6.076,-0 11.067,-1.997 15.017,-5.99c3.928,-4.036 5.903,-9.114 5.903,-15.191c-0,-6.25 -2.04,-11.371 -6.077,-15.364c-4.058,-3.993 -9.006,-5.99 -14.843,-5.99c-6.033,0 -11.068,1.997 -15.104,5.99Z" style="fill:#326dbb;fill-rule:nonzero;"/></g></g><path d="M515.05,703.516l-37.24,55.382c59.245,82.204 148.394,141.428 251.498,161.783c41.645,-55.664 84.613,-127.148 128.884,-214.453l-343.142,-2.712" style="fill:#326dbb;"/><path d="M465.245,740.43l28.125,-37.088l-49.414,-0.391c6.445,12.913 13.564,25.413 21.289,37.479" style="fill:#326dbb;"/><path d="M884.212,706.445c-47.33,95.421 -90.212,168.273 -128.624,218.533c17.383,2.279 35.113,3.429 53.082,3.429c98.589,0 188.997,-35.004 259.483,-93.229c10.656,-29.839 23.481,-72.157 38.433,-126.975l-222.374,-1.758" style="fill:#326dbb;"/><path d="M1123.93,708.333c-10.005,43.577 -18.077,76.172 -24.197,97.83c28.125,-28.689 52.04,-61.502 70.746,-97.439l-46.549,-0.391" style="fill:#326dbb;"/><path d="M1228.05,709.18c-71.918,159.917 -232.639,271.267 -419.379,271.267c-189.301,0 -351.867,-114.453 -422.309,-277.93l-61.177,7.574l-171.853,21.333l185.525,10.395c83.008,176.171 262.175,298.09 469.814,298.09c204.622,-0 381.554,-118.381 466.124,-290.386l196.636,-20.595l-180.903,-14.692l-62.478,-5.056" style="fill:#326dbb;"/><path d="M388.943,333.312c71.745,-160.374 232.704,-272.092 419.727,-272.092c187.717,-0 349.153,112.521 420.529,273.806c21.81,-2.93 42.188,-5.642 61.111,-8.138c114.085,-15.126 175.369,-22.765 183.833,-22.938l-200.347,-13.846c-84.961,-170.898 -261.329,-288.346 -465.126,-288.346c-204.579,-0 -381.511,118.359 -466.081,290.343l-202.886,18.12l187.066,17.318l62.174,5.773" style="fill:#326dbb;"/><path d="M627.355,155.707c-72.7,36.177 -133.073,93.425 -173.112,163.737c199.262,-126.801 337.934,-12.825 462.977,-65.017c-94.553,-73.025 -191.189,-105.924 -289.865,-98.72" style="fill:#326dbb;"/><path d="M478.006,333.485l481.163,0.977c10.807,-4.84 21.745,-9.332 32.856,-13.433c-16.775,-16.949 -33.637,-32.596 -50.564,-46.94c-124.545,45.681 -319.315,-49.827 -463.455,59.396" style="fill:#326dbb;"/><path d="M678.722,134.397c89.149,6.206 175.694,42.838 259.592,109.896c28.168,-25.738 28.971,-62.132 2.409,-109.18c-41.428,-14.171 -85.829,-21.875 -132.053,-21.875c-45.421,-0 -89.128,7.443 -129.948,21.159" style="fill:#326dbb;"/><path d="M974.512,148.394c13.498,45.855 7.639,82.965 -17.557,111.328c19.054,16.341 37.999,34.267 56.771,53.776c41.341,-13.303 84.636,-21.636 129.883,-24.978c-42.274,-60.851 -100.716,-109.635 -169.097,-140.126" style="fill:#326dbb;"/><path d="M1171.47,334.918c-5.1,-9.983 -10.634,-19.705 -16.515,-29.167c-52.366,5.946 -95.812,15.56 -130.317,28.863l146.832,0.304" style="fill:#326dbb;"/><path d="M80.632,472.114c-0,-9.288 2.278,-18.446 6.553,-26.628l20.052,-24.631c8.703,-10.677 13.195,-24.197 12.717,-37.977l-12.825,-144.315c-0.13,-3.667 -3.125,-6.597 -6.662,-6.597c-3.538,0 -6.316,2.93 -6.185,6.597l6.228,128.234c0.174,5.056 -3.494,9.201 -8.138,9.201c-4.666,0 -8.507,-4.145 -8.594,-9.201l-3.667,-128.234c-0.044,-3.667 -2.952,-6.597 -6.489,-6.597c-3.537,0 -6.359,2.93 -6.359,6.597l1.303,128.234c0.043,5.056 -3.711,9.201 -8.377,9.201c-4.666,0 -8.42,-4.145 -8.377,-9.201l1.324,-128.234c-0.044,-3.667 -2.886,-6.597 -6.424,-6.597c-3.515,0 -6.445,2.93 -6.532,6.597l-3.667,128.234c-0.087,5.056 -3.907,9.201 -8.572,9.201c-4.666,0 -8.334,-4.145 -8.16,-9.201l6.228,-128.234c0.13,-3.667 -2.647,-6.597 -6.185,-6.597c-3.537,0 -6.532,2.93 -6.662,6.597l-12.826,144.315c-0.477,13.78 4.059,27.257 12.739,37.977l20.052,24.631c4.319,8.225 6.532,17.34 6.532,26.628c0,-0 9.332,137.804 -8.333,270.79c-0,-0 -13.628,66.775 28.776,66.775c42.426,-0 28.776,-66.775 28.776,-66.775c-17.578,-132.986 -8.246,-270.79 -8.246,-270.79Z" style="fill:#326dbb;fill-rule:nonzero;"/><g><clipPath id="_clip1"><path d="M1224.68,453.255l281.88,-227.908l296.05,366.103l-281.879,227.929l-296.051,-366.124Z"/></clipPath><g clip-path="url(#_clip1)"><g><clipPath id="_clip2"><path d="M1224.68,453.255l281.88,-227.908l296.05,366.103l-281.879,227.929l-296.051,-366.124Z"/></clipPath><g clip-path="url(#_clip2)"><path d="M1499.95,230.729c-1.237,2.93 -0.803,5.36 -0.847,7.769c-1.28,94.944 -2.56,189.909 -3.776,284.853c-0.369,29.08 -0.607,58.181 -0.889,87.261c-0.022,2.365 -0.803,4.883 3.472,4.275c15.777,-2.17 31.575,-3.993 47.374,-6.055c4.427,-0.585 7.14,-2.278 7.465,-7.769c0.695,-11.935 7.552,-15.928 18.902,-11.849c7.574,2.735 15.126,5.469 23.156,8.377c0.217,-2.734 0.499,-4.926 0.499,-7.14c0.238,-52.343 0.933,-104.709 -2.322,-157.009c-2.496,-40.061 -9.093,-79.319 -24.848,-116.58c-14.736,-34.874 -37.327,-63.498 -68.165,-86.155l-0.021,0.022Z" style="fill:#326dbb;fill-rule:nonzero;"/></g></g></g></g><g><clipPath id="_clip3"><path d="M1224.68,453.255l281.88,-227.908l296.05,366.103l-281.879,227.929l-296.051,-366.124Z"/></clipPath><g clip-path="url(#_clip3)"><g><clipPath id="_clip4"><path d="M1224.68,453.255l281.88,-227.908l296.05,366.103l-281.879,227.929l-296.051,-366.124Z"/></clipPath><g clip-path="url(#_clip4)"><path d="M1542.74,625.825c-14.28,2.148 -28.603,3.928 -42.969,5.49c-3.819,0.434 -4.883,1.758 -4.926,5.512c-0.543,46.723 -1.215,93.468 -1.953,140.191c-0.087,6.185 2.864,10.808 6.879,14.887c13.129,13.477 33.963,14.497 53.624,-1.801c7.01,-6.011 10.005,-19.509 7.227,-34.375c-3.429,-18.403 -7.4,-36.784 -11.741,-54.991c-4.579,-19.141 -7.834,-38.173 -3.515,-57.834c0.911,-4.21 0.846,-8.594 1.519,-12.848c0.564,-3.58 0.065,-4.839 -4.167,-4.21l0.022,-0.021Z" style="fill:#326dbb;fill-rule:nonzero;"/></g></g></g></g></g></svg>