<svg xmlns="http://www.w3.org/2000/svg" xmlns:xlink="http://www.w3.org/1999/xlink" width="500" zoomAndPan="magnify" viewBox="0 0 375 374.999991" height="500" preserveAspectRatio="xMidYMid meet" version="1.0"><defs><g/><clipPath id="ee3ea23005"><path d="M 69.644531 220 L 307.328125 220 L 307.328125 280.816406 L 69.644531 280.816406 Z M 69.644531 220 " clip-rule="nonzero"/></clipPath><clipPath id="36890a6551"><path d="M 67.390625 94.066406 L 307.328125 94.066406 L 307.328125 154.175781 L 67.390625 154.175781 Z M 67.390625 94.066406 " clip-rule="nonzero"/></clipPath><clipPath id="8c17ad9f3a"><path d="M 42.21875 135.492188 L 63.96875 135.492188 L 63.96875 239.742188 L 42.21875 239.742188 Z M 42.21875 135.492188 " clip-rule="nonzero"/></clipPath><clipPath id="8111c33d7c"><path d="M 311 135 L 330 135 L 330 205 L 311 205 Z M 311 135 " clip-rule="nonzero"/></clipPath><clipPath id="01eb0bc50f"><path d="M 262.6875 175.335938 L 313.425781 134.3125 L 366.714844 200.210938 L 315.976562 241.238281 Z M 262.6875 175.335938 " clip-rule="nonzero"/></clipPath><clipPath id="4b83195e87"><path d="M 262.6875 175.335938 L 313.425781 134.3125 L 366.714844 200.210938 L 315.976562 241.238281 Z M 262.6875 175.335938 " clip-rule="nonzero"/></clipPath><clipPath id="215af7f988"><path d="M 310 206 L 324 206 L 324 239 L 310 239 Z M 310 206 " clip-rule="nonzero"/></clipPath><clipPath id="b1942b0403"><path d="M 262.6875 175.335938 L 313.425781 134.3125 L 366.714844 200.210938 L 315.976562 241.238281 Z M 262.6875 175.335938 " clip-rule="nonzero"/></clipPath><clipPath id="1434d0b5d9"><path d="M 262.6875 175.335938 L 313.425781 134.3125 L 366.714844 200.210938 L 315.976562 241.238281 Z M 262.6875 175.335938 " clip-rule="nonzero"/></clipPath></defs><rect x="-37.5" width="450" fill="#ffffff" y="-37.499999" height="449.999989" fill-opacity="1"/><rect x="-37.5" width="450" fill="#ffffff" y="-37.499999" height="449.999989" fill-opacity="1"/><g fill="#326dbb" fill-opacity="1"><g transform="translate(71.147704, 197.433621)"><g><path d="M 1.90625 -26.1875 L 10.03125 -26.1875 C 12.488281 -26.1875 14.445312 -25.660156 15.90625 -24.609375 C 17.363281 -23.566406 18.09375 -21.875 18.09375 -19.53125 C 18.09375 -16.90625 17.003906 -15.03125 14.828125 -13.90625 C 18.554688 -13.25 20.421875 -11.046875 20.421875 -7.296875 C 20.421875 -5.097656 19.65625 -3.332031 18.125 -2 C 16.601562 -0.664062 14.507812 0 11.84375 0 L 1.90625 0 Z M 7.875 -15.9375 L 8.34375 -15.9375 C 9.675781 -15.9375 10.671875 -16.164062 11.328125 -16.625 C 11.984375 -17.09375 12.3125 -17.859375 12.3125 -18.921875 C 12.3125 -20.703125 10.988281 -21.59375 8.34375 -21.59375 L 7.875 -21.59375 Z M 7.875 -4.609375 L 9.75 -4.609375 C 12.664062 -4.609375 14.125 -5.582031 14.125 -7.53125 C 14.125 -8.6875 13.757812 -9.519531 13.03125 -10.03125 C 12.300781 -10.539062 11.207031 -10.796875 9.75 -10.796875 L 7.875 -10.796875 Z M 7.875 -4.609375 "/></g></g></g><g fill="#326dbb" fill-opacity="1"><g transform="translate(90.703189, 197.433621)"><g><path d="M 3.015625 -2.015625 C 1.492188 -3.679688 0.734375 -5.71875 0.734375 -8.125 C 0.734375 -10.539062 1.492188 -12.582031 3.015625 -14.25 C 4.535156 -15.925781 6.472656 -16.765625 8.828125 -16.765625 C 10.984375 -16.765625 12.757812 -16.085938 14.15625 -14.734375 L 14.15625 -16.28125 L 19.78125 -16.28125 L 19.78125 0 L 14.21875 0 L 14.21875 -1.84375 L 14.15625 -1.84375 C 12.757812 -0.300781 10.984375 0.46875 8.828125 0.46875 C 6.472656 0.46875 4.535156 -0.359375 3.015625 -2.015625 Z M 7.796875 -10.890625 C 7.066406 -10.171875 6.703125 -9.25 6.703125 -8.125 C 6.703125 -7 7.050781 -6.082031 7.75 -5.375 C 8.445312 -4.664062 9.367188 -4.3125 10.515625 -4.3125 C 11.609375 -4.3125 12.507812 -4.671875 13.21875 -5.390625 C 13.925781 -6.117188 14.28125 -7.03125 14.28125 -8.125 C 14.28125 -9.25 13.914062 -10.171875 13.1875 -10.890625 C 12.457031 -11.609375 11.566406 -11.96875 10.515625 -11.96875 C 9.429688 -11.96875 8.523438 -11.609375 7.796875 -10.890625 Z M 7.796875 -10.890625 "/></g></g></g><g fill="#326dbb" fill-opacity="1"><g transform="translate(110.798366, 197.433621)"><g><path d="M 7.203125 -16.28125 L 7.203125 -8.546875 C 7.203125 -6.929688 7.445312 -5.785156 7.9375 -5.109375 C 8.425781 -4.429688 9.25 -4.09375 10.40625 -4.09375 C 11.570312 -4.09375 12.398438 -4.429688 12.890625 -5.109375 C 13.378906 -5.785156 13.625 -6.929688 13.625 -8.546875 L 13.625 -16.28125 L 19.234375 -16.28125 L 19.234375 -7.171875 C 19.234375 -4.460938 18.53125 -2.507812 17.125 -1.3125 C 15.71875 -0.125 13.476562 0.46875 10.40625 0.46875 C 7.34375 0.46875 5.109375 -0.125 3.703125 -1.3125 C 2.296875 -2.507812 1.59375 -4.460938 1.59375 -7.171875 L 1.59375 -16.28125 Z M 7.203125 -16.28125 "/></g></g></g><g fill="#326dbb" fill-opacity="1"><g transform="translate(130.036392, 197.433621)"><g><path d="M 3.015625 -2.015625 C 1.492188 -3.679688 0.734375 -5.71875 0.734375 -8.125 C 0.734375 -10.539062 1.492188 -12.582031 3.015625 -14.25 C 4.535156 -15.925781 6.472656 -16.765625 8.828125 -16.765625 C 10.984375 -16.765625 12.757812 -16.085938 14.15625 -14.734375 L 14.15625 -27.3125 L 19.78125 -27.3125 L 19.78125 0 L 14.21875 0 L 14.21875 -1.84375 L 14.15625 -1.84375 C 12.757812 -0.300781 10.984375 0.46875 8.828125 0.46875 C 6.472656 0.46875 4.535156 -0.359375 3.015625 -2.015625 Z M 7.796875 -10.890625 C 7.066406 -10.171875 6.703125 -9.25 6.703125 -8.125 C 6.703125 -7 7.050781 -6.082031 7.75 -5.375 C 8.445312 -4.664062 9.367188 -4.3125 10.515625 -4.3125 C 11.609375 -4.3125 12.507812 -4.671875 13.21875 -5.390625 C 13.925781 -6.117188 14.28125 -7.03125 14.28125 -8.125 C 14.28125 -9.25 13.914062 -10.171875 13.1875 -10.890625 C 12.457031 -11.609375 11.566406 -11.96875 10.515625 -11.96875 C 9.429688 -11.96875 8.523438 -11.609375 7.796875 -10.890625 Z M 7.796875 -10.890625 "/></g></g></g><g fill="#326dbb" fill-opacity="1"><g transform="translate(150.131569, 197.433621)"><g><path d="M 14.25 -16.28125 L 20.734375 -16.28125 L 7.9375 8.25 L 1.453125 8.25 L 7.078125 -2.546875 L -0.640625 -16.28125 L 5.84375 -16.28125 L 10.375 -7.9375 Z M 14.25 -16.28125 "/></g></g></g><g fill="#326dbb" fill-opacity="1"><g transform="translate(168.639434, 197.433621)"><g/></g></g><g fill="#326dbb" fill-opacity="1"><g transform="translate(175.718703, 197.433621)"><g><path d="M 0.25 -20.953125 L 0.25 -26.1875 L 18.671875 -26.1875 L 18.671875 -20.953125 L 12.453125 -20.953125 L 12.453125 0 L 6.484375 0 L 6.484375 -20.953125 Z M 0.25 -20.953125 "/></g></g></g><g fill="#326dbb" fill-opacity="1"><g transform="translate(193.051969, 197.433621)"><g><path d="M 1.90625 0 L 1.90625 -16.28125 L 7.53125 -16.28125 L 7.53125 -13.9375 L 7.59375 -13.9375 C 7.632812 -14.019531 7.703125 -14.125 7.796875 -14.25 C 7.890625 -14.382812 8.09375 -14.609375 8.40625 -14.921875 C 8.726562 -15.242188 9.066406 -15.53125 9.421875 -15.78125 C 9.785156 -16.03125 10.253906 -16.253906 10.828125 -16.453125 C 11.398438 -16.660156 11.984375 -16.765625 12.578125 -16.765625 C 13.191406 -16.765625 13.789062 -16.675781 14.375 -16.5 C 14.96875 -16.332031 15.40625 -16.164062 15.6875 -16 L 16.125 -15.75 L 13.78125 -10.984375 C 13.082031 -11.578125 12.109375 -11.875 10.859375 -11.875 C 10.179688 -11.875 9.597656 -11.722656 9.109375 -11.421875 C 8.617188 -11.128906 8.273438 -10.769531 8.078125 -10.34375 C 7.878906 -9.925781 7.738281 -9.566406 7.65625 -9.265625 C 7.570312 -8.972656 7.53125 -8.742188 7.53125 -8.578125 L 7.53125 0 Z M 1.90625 0 "/></g></g></g><g fill="#326dbb" fill-opacity="1"><g transform="translate(207.274113, 197.433621)"><g><path d="M 3.015625 -2.015625 C 1.492188 -3.679688 0.734375 -5.71875 0.734375 -8.125 C 0.734375 -10.539062 1.492188 -12.582031 3.015625 -14.25 C 4.535156 -15.925781 6.472656 -16.765625 8.828125 -16.765625 C 10.984375 -16.765625 12.757812 -16.085938 14.15625 -14.734375 L 14.15625 -16.28125 L 19.78125 -16.28125 L 19.78125 0 L 14.21875 0 L 14.21875 -1.84375 L 14.15625 -1.84375 C 12.757812 -0.300781 10.984375 0.46875 8.828125 0.46875 C 6.472656 0.46875 4.535156 -0.359375 3.015625 -2.015625 Z M 7.796875 -10.890625 C 7.066406 -10.171875 6.703125 -9.25 6.703125 -8.125 C 6.703125 -7 7.050781 -6.082031 7.75 -5.375 C 8.445312 -4.664062 9.367188 -4.3125 10.515625 -4.3125 C 11.609375 -4.3125 12.507812 -4.671875 13.21875 -5.390625 C 13.925781 -6.117188 14.28125 -7.03125 14.28125 -8.125 C 14.28125 -9.25 13.914062 -10.171875 13.1875 -10.890625 C 12.457031 -11.609375 11.566406 -11.96875 10.515625 -11.96875 C 9.429688 -11.96875 8.523438 -11.609375 7.796875 -10.890625 Z M 7.796875 -10.890625 "/></g></g></g><g fill="#326dbb" fill-opacity="1"><g transform="translate(227.369296, 197.433621)"><g><path d="M 2.4375 -25.375 C 3.09375 -26.03125 3.875 -26.359375 4.78125 -26.359375 C 5.695312 -26.359375 6.484375 -26.03125 7.140625 -25.375 C 7.796875 -24.71875 8.125 -23.929688 8.125 -23.015625 C 8.125 -22.109375 7.796875 -21.328125 7.140625 -20.671875 C 6.484375 -20.015625 5.695312 -19.6875 4.78125 -19.6875 C 3.875 -19.6875 3.09375 -20.015625 2.4375 -20.671875 C 1.78125 -21.328125 1.453125 -22.109375 1.453125 -23.015625 C 1.453125 -23.929688 1.78125 -24.71875 2.4375 -25.375 Z M 1.90625 -16.28125 L 1.90625 0 L 7.53125 0 L 7.53125 -16.28125 Z M 1.90625 -16.28125 "/></g></g></g><g fill="#326dbb" fill-opacity="1"><g transform="translate(235.369208, 197.433621)"><g><path d="M 1.90625 0 L 1.90625 -16.28125 L 7.53125 -16.28125 L 7.53125 -14.578125 L 7.59375 -14.578125 C 9.050781 -16.035156 10.601562 -16.765625 12.25 -16.765625 C 13.0625 -16.765625 13.863281 -16.65625 14.65625 -16.4375 C 15.445312 -16.226562 16.207031 -15.898438 16.9375 -15.453125 C 17.664062 -15.015625 18.257812 -14.382812 18.71875 -13.5625 C 19.175781 -12.75 19.40625 -11.804688 19.40625 -10.734375 L 19.40625 0 L 13.78125 0 L 13.78125 -9.203125 C 13.78125 -10.054688 13.507812 -10.796875 12.96875 -11.421875 C 12.425781 -12.054688 11.722656 -12.375 10.859375 -12.375 C 10.015625 -12.375 9.25 -12.046875 8.5625 -11.390625 C 7.875 -10.734375 7.53125 -10.003906 7.53125 -9.203125 L 7.53125 0 Z M 1.90625 0 "/></g></g></g><g fill="#326dbb" fill-opacity="1"><g transform="translate(254.765969, 197.433621)"><g><path d="M 2.4375 -25.375 C 3.09375 -26.03125 3.875 -26.359375 4.78125 -26.359375 C 5.695312 -26.359375 6.484375 -26.03125 7.140625 -25.375 C 7.796875 -24.71875 8.125 -23.929688 8.125 -23.015625 C 8.125 -22.109375 7.796875 -21.328125 7.140625 -20.671875 C 6.484375 -20.015625 5.695312 -19.6875 4.78125 -19.6875 C 3.875 -19.6875 3.09375 -20.015625 2.4375 -20.671875 C 1.78125 -21.328125 1.453125 -22.109375 1.453125 -23.015625 C 1.453125 -23.929688 1.78125 -24.71875 2.4375 -25.375 Z M 1.90625 -16.28125 L 1.90625 0 L 7.53125 0 L 7.53125 -16.28125 Z M 1.90625 -16.28125 "/></g></g></g><g fill="#326dbb" fill-opacity="1"><g transform="translate(262.765881, 197.433621)"><g><path d="M 1.90625 0 L 1.90625 -16.28125 L 7.53125 -16.28125 L 7.53125 -14.578125 L 7.59375 -14.578125 C 9.050781 -16.035156 10.601562 -16.765625 12.25 -16.765625 C 13.0625 -16.765625 13.863281 -16.65625 14.65625 -16.4375 C 15.445312 -16.226562 16.207031 -15.898438 16.9375 -15.453125 C 17.664062 -15.015625 18.257812 -14.382812 18.71875 -13.5625 C 19.175781 -12.75 19.40625 -11.804688 19.40625 -10.734375 L 19.40625 0 L 13.78125 0 L 13.78125 -9.203125 C 13.78125 -10.054688 13.507812 -10.796875 12.96875 -11.421875 C 12.425781 -12.054688 11.722656 -12.375 10.859375 -12.375 C 10.015625 -12.375 9.25 -12.046875 8.5625 -11.390625 C 7.875 -10.734375 7.53125 -10.003906 7.53125 -9.203125 L 7.53125 0 Z M 1.90625 0 "/></g></g></g><g fill="#326dbb" fill-opacity="1"><g transform="translate(282.162642, 197.433621)"><g><path d="M 1.171875 4 L 5.78125 1.75 C 6.625 3.144531 8.09375 3.84375 10.1875 3.84375 C 11.164062 3.84375 12.070312 3.53125 12.90625 2.90625 C 13.738281 2.28125 14.15625 1.320312 14.15625 0.03125 L 14.15625 -1.171875 C 13.164062 -0.078125 11.390625 0.46875 8.828125 0.46875 C 6.472656 0.46875 4.535156 -0.359375 3.015625 -2.015625 C 1.492188 -3.679688 0.734375 -5.71875 0.734375 -8.125 C 0.734375 -10.539062 1.492188 -12.582031 3.015625 -14.25 C 4.535156 -15.925781 6.472656 -16.765625 8.828125 -16.765625 C 10.921875 -16.765625 12.664062 -16.117188 14.0625 -14.828125 L 14.15625 -14.828125 L 14.15625 -16.28125 L 19.78125 -16.28125 L 19.78125 0.4375 C 19.78125 3.082031 18.898438 5.125 17.140625 6.5625 C 15.390625 8.007812 13.070312 8.734375 10.1875 8.734375 C 5.53125 8.734375 2.523438 7.15625 1.171875 4 Z M 7.796875 -10.890625 C 7.066406 -10.171875 6.703125 -9.25 6.703125 -8.125 C 6.703125 -7 7.050781 -6.082031 7.75 -5.375 C 8.445312 -4.664062 9.367188 -4.3125 10.515625 -4.3125 C 11.609375 -4.3125 12.507812 -4.671875 13.21875 -5.390625 C 13.925781 -6.117188 14.28125 -7.03125 14.28125 -8.125 C 14.28125 -9.25 13.914062 -10.171875 13.1875 -10.890625 C 12.457031 -11.609375 11.566406 -11.96875 10.515625 -11.96875 C 9.429688 -11.96875 8.523438 -11.609375 7.796875 -10.890625 Z M 7.796875 -10.890625 "/></g></g></g><g fill="#326dbb" fill-opacity="1"><g transform="translate(302.26488, 197.433621)"><g/></g></g><path fill="#326dbb" d="M 134.953125 220.382812 L 128.25 230.351562 C 138.914062 245.148438 154.960938 255.808594 173.519531 259.472656 C 181.015625 249.453125 188.75 236.585938 196.71875 220.871094 L 134.953125 220.382812 " fill-opacity="1" fill-rule="evenodd"/><path fill="#326dbb" d="M 125.988281 227.027344 L 131.050781 220.351562 L 122.15625 220.28125 C 123.316406 222.605469 124.597656 224.855469 125.988281 227.027344 " fill-opacity="1" fill-rule="evenodd"/><path fill="#326dbb" d="M 201.402344 220.910156 C 192.882812 238.085938 185.164062 251.199219 178.25 260.246094 C 181.378906 260.65625 184.570312 260.863281 187.804688 260.863281 C 205.550781 260.863281 221.824219 254.5625 234.511719 244.082031 C 236.429688 238.710938 238.738281 231.09375 241.429688 221.226562 L 201.402344 220.910156 " fill-opacity="1" fill-rule="evenodd"/><path fill="#326dbb" d="M 244.550781 221.25 C 242.75 229.09375 241.296875 234.960938 240.195312 238.859375 C 245.257812 233.695312 249.5625 227.789062 252.929688 221.320312 L 244.550781 221.25 " fill-opacity="1" fill-rule="evenodd"/><g clip-path="url(#ee3ea23005)"><path fill="#326dbb" d="M 263.292969 221.402344 C 250.347656 250.1875 221.417969 270.230469 187.804688 270.230469 C 153.730469 270.230469 124.46875 249.628906 111.789062 220.203125 L 100.777344 221.566406 L 69.84375 225.40625 L 103.238281 227.277344 C 118.179688 258.988281 150.429688 280.933594 187.804688 280.933594 C 224.636719 280.933594 256.484375 259.625 271.707031 228.664062 L 307.101562 224.957031 L 274.539062 222.3125 L 263.292969 221.402344 " fill-opacity="1" fill-rule="evenodd"/></g><g clip-path="url(#36890a6551)"><path fill="#326dbb" d="M 112.253906 153.746094 C 125.167969 124.878906 154.140625 104.769531 187.804688 104.769531 C 221.59375 104.769531 250.652344 125.023438 263.5 154.054688 C 267.425781 153.527344 271.09375 153.039062 274.5 152.589844 C 295.035156 149.867188 306.066406 148.492188 307.589844 148.460938 L 271.527344 145.96875 C 256.234375 115.207031 224.488281 94.066406 187.804688 94.066406 C 150.980469 94.066406 119.132812 115.371094 103.910156 146.328125 L 67.390625 149.589844 L 101.0625 152.707031 L 112.253906 153.746094 " fill-opacity="1" fill-rule="evenodd"/></g><path fill="#326dbb" d="M 155.167969 121.777344 C 142.082031 128.289062 131.214844 138.59375 124.007812 151.25 C 159.875 128.425781 184.835938 148.941406 207.34375 139.546875 C 190.324219 126.402344 172.929688 120.480469 155.167969 121.777344 " fill-opacity="1" fill-rule="evenodd"/><path fill="#326dbb" d="M 128.285156 153.777344 L 214.894531 153.953125 C 216.839844 153.082031 218.808594 152.273438 220.808594 151.535156 C 217.789062 148.484375 214.753906 145.667969 211.707031 143.085938 C 189.289062 151.308594 154.230469 134.117188 128.285156 153.777344 " fill-opacity="1" fill-rule="evenodd"/><path fill="#326dbb" d="M 164.414062 117.941406 C 180.460938 119.058594 196.039062 125.652344 211.140625 137.722656 C 216.210938 133.089844 216.355469 126.539062 211.574219 118.070312 C 204.117188 115.519531 196.125 114.132812 187.804688 114.132812 C 179.628906 114.132812 171.761719 115.472656 164.414062 117.941406 " fill-opacity="1" fill-rule="evenodd"/><path fill="#326dbb" d="M 217.65625 120.460938 C 220.085938 128.714844 219.03125 135.394531 214.496094 140.5 C 217.925781 143.441406 221.335938 146.667969 224.714844 150.179688 C 232.15625 147.785156 239.949219 146.285156 248.09375 145.683594 C 240.484375 134.730469 229.964844 125.949219 217.65625 120.460938 " fill-opacity="1" fill-rule="evenodd"/><path fill="#326dbb" d="M 253.109375 154.035156 C 252.191406 152.238281 251.195312 150.488281 250.136719 148.785156 C 240.710938 149.855469 232.890625 151.585938 226.679688 153.980469 L 253.109375 154.035156 " fill-opacity="1" fill-rule="evenodd"/><g clip-path="url(#8c17ad9f3a)"><path fill="#326dbb" d="M 56.757812 178.730469 C 56.757812 177.058594 57.167969 175.410156 57.9375 173.9375 L 61.546875 169.503906 C 63.113281 167.582031 63.921875 165.148438 63.835938 162.667969 L 61.527344 136.691406 C 61.503906 136.03125 60.964844 135.503906 60.328125 135.503906 C 59.691406 135.503906 59.191406 136.03125 59.214844 136.691406 L 60.335938 159.773438 C 60.367188 160.683594 59.707031 161.429688 58.871094 161.429688 C 58.03125 161.429688 57.339844 160.683594 57.324219 159.773438 L 56.664062 136.691406 C 56.65625 136.03125 56.132812 135.503906 55.496094 135.503906 C 54.859375 135.503906 54.351562 136.03125 54.351562 136.691406 L 54.585938 159.773438 C 54.59375 160.683594 53.917969 161.429688 53.078125 161.429688 C 52.238281 161.429688 51.5625 160.683594 51.570312 159.773438 L 51.808594 136.691406 C 51.800781 136.03125 51.289062 135.503906 50.652344 135.503906 C 50.019531 135.503906 49.492188 136.03125 49.476562 136.691406 L 48.816406 159.773438 C 48.800781 160.683594 48.113281 161.429688 47.273438 161.429688 C 46.433594 161.429688 45.773438 160.683594 45.804688 159.773438 L 46.925781 136.691406 C 46.949219 136.03125 46.449219 135.503906 45.8125 135.503906 C 45.175781 135.503906 44.636719 136.03125 44.613281 136.691406 L 42.304688 162.667969 C 42.21875 165.148438 43.035156 167.574219 44.597656 169.503906 L 48.207031 173.9375 C 48.984375 175.417969 49.382812 177.058594 49.382812 178.730469 C 49.382812 178.730469 51.0625 203.535156 47.882812 227.472656 C 47.882812 227.472656 45.429688 239.492188 53.0625 239.492188 C 60.699219 239.492188 58.242188 227.472656 58.242188 227.472656 C 55.078125 203.535156 56.757812 178.730469 56.757812 178.730469 Z M 56.757812 178.730469 " fill-opacity="1" fill-rule="nonzero"/></g><g clip-path="url(#8111c33d7c)"><g clip-path="url(#01eb0bc50f)"><g clip-path="url(#4b83195e87)"><path fill="#326dbb" d="M 312.234375 135.28125 C 312.011719 135.808594 312.089844 136.246094 312.082031 136.679688 C 311.851562 153.769531 311.621094 170.863281 311.402344 187.953125 C 311.335938 193.1875 311.292969 198.425781 311.242188 203.660156 C 311.238281 204.085938 311.097656 204.539062 311.867188 204.429688 C 314.707031 204.039062 317.550781 203.710938 320.394531 203.339844 C 321.191406 203.234375 321.679688 202.929688 321.738281 201.941406 C 321.863281 199.792969 323.097656 199.074219 325.140625 199.808594 C 326.503906 200.300781 327.863281 200.792969 329.308594 201.316406 C 329.347656 200.824219 329.398438 200.429688 329.398438 200.03125 C 329.441406 190.609375 329.566406 181.183594 328.980469 171.769531 C 328.53125 164.558594 327.34375 157.492188 324.507812 150.785156 C 321.855469 144.507812 317.789062 139.355469 312.238281 135.277344 Z M 312.234375 135.28125 " fill-opacity="1" fill-rule="nonzero"/></g></g></g><g clip-path="url(#215af7f988)"><g clip-path="url(#b1942b0403)"><g clip-path="url(#1434d0b5d9)"><path fill="#326dbb" d="M 319.9375 206.398438 C 317.367188 206.785156 314.789062 207.105469 312.203125 207.386719 C 311.515625 207.464844 311.324219 207.703125 311.316406 208.378906 C 311.21875 216.789062 311.097656 225.203125 310.964844 233.613281 C 310.949219 234.726562 311.480469 235.558594 312.203125 236.292969 C 314.566406 238.71875 318.316406 238.902344 321.855469 235.96875 C 323.117188 234.886719 323.65625 232.457031 323.15625 229.78125 C 322.539062 226.46875 321.824219 223.160156 321.042969 219.882812 C 320.21875 216.4375 319.632812 213.011719 320.410156 209.472656 C 320.574219 208.714844 320.5625 207.925781 320.683594 207.160156 C 320.785156 206.515625 320.695312 206.289062 319.933594 206.402344 Z M 319.9375 206.398438 " fill-opacity="1" fill-rule="nonzero"/></g></g></g></svg>