<?xml version="1.0" encoding="UTF-8" standalone="no"?><!DOCTYPE svg PUBLIC "-//W3C//DTD SVG 1.1//EN" "http://www.w3.org/Graphics/SVG/1.1/DTD/svg11.dtd"><svg width="100%" height="100%" viewBox="0 0 6650 4342" version="1.1" xmlns="http://www.w3.org/2000/svg" xmlns:xlink="http://www.w3.org/1999/xlink" xml:space="preserve" xmlns:serif="http://www.serif.com/" style="fill-rule:evenodd;clip-rule:evenodd;stroke-linejoin:round;stroke-miterlimit:2;"><g><g><g><path d="M713.192,1793.89l188.079,-0c56.875,-0 102.175,12.208 135.992,36.529c33.729,24.146 50.637,63.296 50.637,117.55c0,60.766 -25.225,104.167 -75.592,130.208c86.263,15.192 129.484,66.192 129.484,152.996c-0,50.908 -17.721,91.779 -53.167,122.612c-35.267,30.925 -83.733,46.296 -145.4,46.296l-230.033,0l-0,-606.191Zm138.162,237.266l10.854,0c30.834,0 53.892,-5.241 69.079,-15.912c15.192,-10.85 22.788,-28.575 22.788,-53.167c-0,-41.233 -30.654,-61.85 -91.867,-61.85l-10.854,0l0,130.929Zm0,262.225l43.404,0c67.454,0 101.275,-22.512 101.275,-67.633c0,-26.767 -8.5,-46.025 -25.32,-57.871c-16.909,-11.754 -42.225,-17.725 -75.955,-17.725l-43.404,0l0,143.229Z" style="fill:#fff;fill-rule:nonzero;"/></g></g><g><g><path d="M1191.54,2353.43c-35.263,-38.521 -52.804,-85.721 -52.804,-141.421c-0,-55.879 17.541,-103.171 52.804,-141.783c35.175,-38.788 80.025,-58.229 134.55,-58.229c49.912,-0 90.966,15.733 123.337,47.016l0,-35.804l130.209,0l-0,376.879l-128.763,0l0,-42.679l-1.446,0c-32.371,35.717 -73.425,53.529 -123.337,53.529c-54.525,0 -99.375,-19.166 -134.55,-57.508Zm110.679,-205.438c-16.909,16.638 -25.317,37.976 -25.317,64.017c0,26.042 8.046,47.292 24.233,63.659c16.092,16.458 37.434,24.595 64.017,24.595c25.317,0 46.117,-8.32 62.571,-24.958c16.367,-16.817 24.596,-37.975 24.596,-63.296c-0,-26.041 -8.5,-47.379 -25.317,-64.016c-16.908,-16.638 -37.525,-24.959 -61.85,-24.959c-25.137,0 -46.117,8.321 -62.933,24.959Z" style="fill:#fff;fill-rule:nonzero;"/></g></g><g><g><path d="M1753.64,2023.2l-0,179.034c-0,37.437 5.608,63.929 17,79.575c11.304,15.733 30.383,23.508 57.146,23.508c26.945,-0 46.116,-7.775 57.508,-23.508c11.304,-15.646 17,-42.138 17,-79.575l-0,-179.034l129.846,0l-0,210.863c-0,62.754 -16.275,107.966 -48.825,135.633c-32.554,27.492 -84.455,41.233 -155.529,41.233c-70.892,0 -122.613,-13.741 -155.163,-41.233c-32.554,-27.667 -48.829,-72.879 -48.829,-135.633l-0,-210.863l129.846,0Z" style="fill:#fff;fill-rule:nonzero;"/></g></g><g><g><path d="M2102.03,2353.43c-35.262,-38.521 -52.804,-85.721 -52.804,-141.421c0,-55.879 17.542,-103.171 52.804,-141.783c35.175,-38.788 80.025,-58.229 134.55,-58.229c49.913,-0 90.963,15.733 123.338,47.016l-0,-291.158l130.208,-0l0,632.233l-128.762,0l-0,-42.679l-1.446,0c-32.375,35.717 -73.425,53.529 -123.338,53.529c-54.525,0 -99.375,-19.166 -134.55,-57.508Zm110.68,-205.438c-16.909,16.638 -25.321,37.976 -25.321,64.017c-0,26.042 8.05,47.292 24.233,63.659c16.096,16.458 37.438,24.595 64.021,24.595c25.317,0 46.117,-8.32 62.571,-24.958c16.366,-16.817 24.596,-37.975 24.596,-63.296c-0,-26.041 -8.5,-47.379 -25.317,-64.017c-16.913,-16.637 -37.525,-24.958 -61.85,-24.958c-25.138,0 -46.117,8.321 -62.933,24.958Z" style="fill:#fff;fill-rule:nonzero;"/></g></g><g><g><path d="M2827.25,2023.2l150.104,0l-296.225,567.85l-150.1,0l130.209,-249.925l-178.675,-317.925l150.1,0l104.891,193.142l89.696,-193.142Z" style="fill:#fff;fill-rule:nonzero;"/></g></g><g><g><path d="M3095.47,1915.06l0,-121.166l426.433,-0l0,121.166l-143.954,0l0,485.025l-138.162,0l-0,-485.025l-144.317,0Z" style="fill:#fff;fill-rule:nonzero;"/></g></g><g><g><path d="M3535.05,2400.08l0,-376.879l130.208,0l0,54.254l1.446,0c0.904,-1.9 2.529,-4.341 4.7,-7.237c2.171,-3.071 6.875,-8.317 14.109,-15.55c7.412,-7.417 15.279,-14.109 23.508,-19.892c8.408,-5.787 19.258,-10.941 32.554,-15.554c13.2,-4.792 26.763,-7.233 40.508,-7.233c14.196,-0 28.03,2.079 41.592,6.146c13.746,3.891 23.875,7.779 30.383,11.575l10.13,5.787l-54.255,110.317c-16.187,-13.746 -38.7,-20.617 -67.637,-20.617c-15.733,0 -29.204,3.525 -40.508,10.488c-11.392,6.783 -19.35,15.1 -23.871,24.958c-4.613,9.675 -7.867,17.992 -9.767,24.954c-1.987,6.783 -2.892,12.117 -2.892,15.917l0,198.566l-130.208,0Z" style="fill:#fff;fill-rule:nonzero;"/></g></g><g><g><path d="M3889.95,2353.43c-35.267,-38.521 -52.808,-85.721 -52.808,-141.421c-0,-55.879 17.541,-103.171 52.808,-141.783c35.175,-38.788 80.021,-58.229 134.546,-58.229c49.916,-0 90.966,15.733 123.337,47.016l0,-35.804l130.208,0l0.001,376.879l-128.763,0l0,-42.679l-1.446,0c-32.371,35.717 -73.421,53.529 -123.337,53.529c-54.525,0 -99.371,-19.166 -134.546,-57.508Zm110.675,-205.438c-16.909,16.638 -25.317,37.976 -25.317,64.017c0,26.042 8.046,47.292 24.234,63.659c16.095,16.458 37.433,24.595 64.016,24.595c25.321,0 46.117,-8.32 62.575,-24.958c16.367,-16.817 24.592,-37.975 24.592,-63.296c-0,-26.041 -8.496,-47.379 -25.317,-64.016c-16.908,-16.638 -37.525,-24.959 -61.85,-24.959c-25.137,0 -46.112,8.321 -62.933,24.959Z" style="fill:#fff;fill-rule:nonzero;"/></g></g><g><g><path d="M4341.75,1812.7c15.192,-15.192 33.275,-22.787 54.254,-22.787c21.159,-0 39.421,7.595 54.613,22.787c15.191,15.192 22.787,33.454 22.787,54.617c0,20.975 -7.596,39.062 -22.787,54.25c-15.192,15.191 -33.454,22.787 -54.613,22.787c-20.979,0 -39.062,-7.596 -54.254,-22.787c-15.192,-15.188 -22.788,-33.275 -22.788,-54.25c0,-21.163 7.596,-39.425 22.788,-54.617Zm-12.3,210.504l0,376.879l130.208,0l0,-376.879l-130.208,0Z" style="fill:#fff;fill-rule:nonzero;"/></g></g><g><g><path d="M4514.62,2400.08l0,-376.879l130.208,0l0,39.425l1.45,0c33.725,-33.729 69.625,-50.637 107.784,-50.637c18.808,-0 37.341,2.529 55.7,7.595c18.262,4.884 35.896,12.475 52.804,22.784c16.821,10.129 30.562,24.779 41.233,43.766c10.579,18.809 15.917,40.692 15.917,65.467l-0,248.479l-130.209,0l0,-213.033c0,-19.713 -6.333,-36.896 -18.808,-51.363c-12.571,-14.645 -28.846,-22.062 -48.829,-22.062c-19.533,-0 -37.254,7.596 -53.167,22.787c-15.916,15.192 -23.875,32.1 -23.875,50.638l0,213.033l-130.208,0Z" style="fill:#fff;fill-rule:nonzero;"/></g></g><g><g><path d="M4975.92,1812.7c15.187,-15.192 33.275,-22.787 54.25,-22.787c21.158,-0 39.425,7.595 54.616,22.787c15.192,15.192 22.788,33.454 22.788,54.617c-0,20.975 -7.596,39.062 -22.788,54.25c-15.191,15.191 -33.458,22.787 -54.616,22.787c-20.975,0 -39.063,-7.596 -54.25,-22.787c-15.192,-15.188 -22.788,-33.275 -22.788,-54.25c0,-21.163 7.596,-39.425 22.788,-54.617Zm-12.3,210.504l-0,376.879l130.208,0l0,-376.879l-130.208,0Z" style="fill:#fff;fill-rule:nonzero;"/></g></g><g><g><path d="M5148.79,2400.08l-0,-376.879l130.208,0l0,39.425l1.446,0c33.729,-33.729 69.625,-50.637 107.783,-50.637c18.808,-0 37.346,2.529 55.7,7.595c18.267,4.884 35.9,12.475 52.809,22.784c16.816,10.129 30.562,24.779 41.233,43.766c10.579,18.809 15.912,40.692 15.912,65.467l0,248.479l-130.208,0l-0,-213.033c-0,-19.713 -6.329,-36.896 -18.808,-51.363c-12.567,-14.645 -28.842,-22.062 -48.825,-22.062c-19.534,-0 -37.255,7.596 -53.171,22.787c-15.913,15.192 -23.871,32.1 -23.871,50.638l-0,213.033l-130.208,0Z" style="fill:#fff;fill-rule:nonzero;"/></g></g><g><g><path d="M5580.79,2492.68l106.7,-52.083c19.529,32.283 53.529,48.466 101.996,48.466c22.604,0 43.583,-7.233 62.933,-21.7c19.258,-14.466 28.933,-36.712 28.933,-66.55l0,-27.85c-22.966,25.317 -64.016,37.975 -123.333,37.975c-54.525,0 -99.375,-19.166 -134.55,-57.508c-35.263,-38.521 -52.808,-85.721 -52.808,-141.421c-0,-55.879 17.545,-103.171 52.808,-141.783c35.175,-38.788 80.025,-58.229 134.55,-58.229c48.467,-0 88.792,15.008 121.167,44.85l2.166,-0l0,-33.638l130.208,0l0.001,387.008c-0.001,61.217 -20.434,108.505 -61.126,141.78c-40.508,33.458 -94.22,50.275 -160.949,50.275c-107.784,-0 -177.409,-36.53 -208.696,-109.592Zm153.358,-344.688c-16.913,16.638 -25.321,37.975 -25.321,64.017c0,26.042 8.05,47.292 24.233,63.658c16.096,16.459 37.438,24.596 64.021,24.596c25.317,0 46.113,-8.32 62.571,-24.958c16.367,-16.817 24.596,-37.975 24.596,-63.296c0,-26.042 -8.5,-47.379 -25.321,-64.017c-16.908,-16.637 -37.525,-24.958 -61.846,-24.958c-25.137,0 -46.116,8.321 -62.933,24.958Z" style="fill:#fff;fill-rule:nonzero;"/></g></g><path d="M2146.04,2931.32l-155.167,230.758c246.854,342.517 618.308,589.283 1047.91,674.096c173.521,-231.933 352.555,-529.784 537.017,-893.554l-1429.76,-11.3" style="fill:#fff;"/><path d="M1938.52,3085.12l117.187,-154.533l-205.891,-1.63c26.854,53.805 56.516,105.888 88.704,156.163" style="fill:#fff;"/><path d="M3684.22,2943.52c-197.209,397.587 -375.884,701.137 -535.934,910.554c72.429,9.496 146.305,14.288 221.175,14.288c410.788,-0 787.488,-145.851 1081.18,-388.455c44.399,-124.329 97.837,-300.654 160.137,-529.062l-926.558,-7.325" style="fill:#fff;"/><path d="M4683.04,2951.39c-41.688,181.57 -75.321,317.383 -100.821,407.625c117.187,-119.538 216.833,-256.259 294.775,-405.996l-193.954,-1.629" style="fill:#fff;"/><path d="M5116.88,2954.92c-299.658,666.321 -969.329,1130.28 -1747.41,1130.28c-788.755,-0 -1466.11,-476.888 -1759.62,-1158.04l-254.905,31.558l-716.054,88.888l773.021,43.312c345.867,734.046 1092.4,1242.04 1957.56,1242.04c852.592,0 1589.81,-493.254 1942.18,-1209.94l819.316,-85.812l-753.762,-61.217l-260.325,-21.066" style="fill:#fff;"/><path d="M1620.6,1388.8c298.937,-668.225 969.6,-1133.72 1748.86,-1133.72c782.155,0 1454.8,468.838 1752.2,1140.86c90.874,-12.209 175.783,-23.509 254.629,-33.909c475.354,-63.025 730.704,-94.854 765.971,-95.575l-834.78,-57.691c-354.004,-712.075 -1088.87,-1201.44 -1938.03,-1201.44c-852.412,0 -1589.63,493.163 -1942,1209.76l-845.358,75.5l779.442,72.158l259.058,24.054" style="fill:#fff;"/><path d="M2613.98,648.779c-302.917,150.738 -554.471,389.271 -721.3,682.238c830.259,-528.338 1408.06,-53.438 1929.07,-270.905c-393.971,-304.27 -796.621,-441.35 -1207.77,-411.333" style="fill:#fff;"/><path d="M1991.69,1389.52l2004.85,4.071c45.029,-20.167 90.604,-38.884 136.9,-55.971c-69.896,-70.621 -140.155,-135.817 -210.684,-195.583c-518.937,190.337 -1330.48,-207.613 -1931.06,247.483" style="fill:#fff;"/><path d="M2828.01,559.988c371.454,25.858 732.059,178.491 1081.63,457.9c117.366,-107.242 120.712,-258.884 10.037,-454.917c-172.617,-59.046 -357.621,-91.146 -550.221,-91.146c-189.254,-0 -371.366,31.012 -541.45,88.162" style="fill:#fff;"/><path d="M4060.47,618.308c56.241,191.063 31.829,345.688 -73.155,463.867c79.392,68.088 158.33,142.779 236.546,224.067c172.254,-55.429 352.65,-90.15 541.18,-104.075c-176.142,-253.546 -419.65,-456.813 -704.571,-583.859" style="fill:#fff;"/><path d="M4881.12,1395.49c-21.25,-41.596 -44.308,-82.104 -68.813,-121.529c-218.191,24.775 -399.216,64.833 -542.987,120.262l611.8,1.267" style="fill:#fff;"/><path d="M335.967,1967.14c-0,-38.7 9.491,-76.859 27.304,-110.95l83.55,-102.629c36.262,-44.488 54.979,-100.821 52.987,-158.238l-53.437,-601.312c-0.542,-15.28 -13.021,-27.488 -27.759,-27.488c-14.741,0 -26.316,12.208 -25.77,27.488l25.95,534.308c0.725,21.066 -14.559,38.337 -33.909,38.337c-19.441,0 -35.446,-17.27 -35.808,-38.337l-15.279,-534.309c-0.184,-15.279 -12.3,-27.487 -27.038,-27.487c-14.737,-0 -26.496,12.208 -26.496,27.487l5.43,534.309c0.179,21.066 -15.463,38.337 -34.905,38.337c-19.441,0 -35.083,-17.27 -34.904,-38.337l5.517,-534.309c-0.183,-15.279 -12.025,-27.487 -26.767,-27.487c-14.646,-0 -26.854,12.208 -27.216,27.487l-15.28,534.309c-0.362,21.066 -16.279,38.337 -35.716,38.337c-19.442,0 -34.725,-17.27 -34,-38.337l25.95,-534.309c0.541,-15.279 -11.029,-27.487 -25.771,-27.487c-14.738,-0 -27.217,12.208 -27.758,27.487l-53.442,601.313c-1.988,57.417 16.912,113.571 53.079,158.237l83.55,102.63c17.996,34.27 27.217,72.25 27.217,110.95c-0,-0 38.883,574.183 -34.721,1128.29c-0,0 -56.783,278.229 119.9,278.229c176.775,0 119.9,-278.229 119.9,-278.229c-73.242,-554.108 -34.358,-1128.29 -34.358,-1128.29Z" style="fill:#fff;fill-rule:nonzero;"/><g><g><clipPath id="_clip1"><path d="M5102.83,1888.56l1174.5,-949.617l1233.54,1525.43l-1174.5,949.704l-1233.55,-1525.52Z"/></clipPath><g clip-path="url(#_clip1)"><g><g><clipPath id="_clip2"><path d="M5102.83,1888.56l1174.5,-949.617l1233.54,1525.43l-1174.5,949.704l-1233.55,-1525.52Z"/></clipPath><g clip-path="url(#_clip2)"><path d="M6249.79,961.371c-5.154,12.208 -3.346,22.333 -3.529,32.371c-5.334,395.6 -10.667,791.287 -15.734,1186.89c-1.537,121.167 -2.529,242.421 -3.704,363.588c-0.092,9.854 -3.346,20.345 14.467,17.812c65.737,-9.041 131.562,-16.637 197.391,-25.229c18.446,-2.438 29.75,-9.492 31.105,-32.371c2.895,-49.729 31.466,-66.367 78.758,-49.371c31.558,11.396 63.025,22.788 96.483,34.904c0.904,-11.391 2.079,-20.525 2.079,-29.75c0.992,-218.095 3.888,-436.287 -9.675,-654.204c-10.4,-166.92 -37.887,-330.496 -103.533,-485.75c-61.4,-145.308 -155.529,-264.575 -284.021,-358.979l-0.087,0.092Z" style="fill:#fff;fill-rule:nonzero;"/></g></g></g></g></g></g><g><g><clipPath id="_clip3"><path d="M5102.83,1888.56l1174.5,-949.617l1233.54,1525.43l-1174.5,949.704l-1233.55,-1525.52Z"/></clipPath><g clip-path="url(#_clip3)"><g><g><clipPath id="_clip4"><path d="M5102.83,1888.56l1174.5,-949.617l1233.54,1525.43l-1174.5,949.704l-1233.55,-1525.52Z"/></clipPath><g clip-path="url(#_clip4)"><path d="M6428.08,2607.6c-59.5,8.95 -119.179,16.367 -179.037,22.875c-15.913,1.809 -20.346,7.325 -20.525,22.967c-2.263,194.679 -5.063,389.45 -8.138,584.129c-0.362,25.771 11.934,45.033 28.663,62.029c54.704,56.154 141.512,60.404 223.433,-7.504c29.208,-25.046 41.688,-81.288 30.113,-143.229c-14.288,-76.679 -30.834,-153.267 -48.921,-229.129c-19.079,-79.755 -32.642,-159.055 -14.646,-240.975c3.796,-17.542 3.525,-35.809 6.329,-53.534c2.35,-14.916 0.271,-20.162 -17.362,-17.541l0.091,-0.088Z" style="fill:#fff;fill-rule:nonzero;"/></g></g></g></g></g></g></g></svg>